<svg width="553" height="669" viewBox="0 0 553 669" fill="none" xmlns="http://www.w3.org/2000/svg">
<g clip-path="url(#clip0_1090_2)">
<path d="M128.5 220.5H197.5" stroke="#3F4445" stroke-width="10"/>
<path d="M111.5 267H197.5" stroke="#3F4445" stroke-width="10"/>
<path d="M96 313.5H197.5" stroke="#3F4445" stroke-width="10"/>
<path d="M157.5 361H190.5" stroke="#3F4445" stroke-width="10"/>
<path d="M338.5 237L312.076 352.169C312.025 352.389 312 352.614 312 352.84V361.5H357H260" stroke="#3F4445" stroke-width="10"/>
<path d="M160 189H343.876C345.758 189 347.175 190.712 346.824 192.56L338.676 235.44C338.325 237.288 339.742 239 341.624 239H395.573C402.773 239 409.888 240.555 416.431 243.559L424.118 247.087C432.54 250.953 439.722 257.083 444.862 264.794L450.835 273.753C450.945 273.917 451.038 274.092 451.113 274.275L452.321 277.208C456.026 286.207 457.025 296.091 455.195 305.649L444.966 359.064C444.696 360.478 443.459 361.5 442.02 361.5H433.5H427" stroke="#3F4445" stroke-width="10"/>
<circle cx="225.5" cy="361" r="30" stroke="#55BB75" stroke-width="10"/>
<circle cx="392.5" cy="361" r="30" stroke="#55BB75" stroke-width="10"/>
<path d="M163.273 431.727V455H160.545L147.864 436.727H147.636V455H144.818V431.727H147.545L160.273 450.045H160.5V431.727H163.273ZM195.588 443.364C195.588 445.818 195.145 447.939 194.259 449.727C193.372 451.515 192.156 452.894 190.611 453.864C189.066 454.833 187.3 455.318 185.316 455.318C183.331 455.318 181.566 454.833 180.02 453.864C178.475 452.894 177.259 451.515 176.372 449.727C175.486 447.939 175.043 445.818 175.043 443.364C175.043 440.909 175.486 438.788 176.372 437C177.259 435.212 178.475 433.833 180.02 432.864C181.566 431.894 183.331 431.409 185.316 431.409C187.3 431.409 189.066 431.894 190.611 432.864C192.156 433.833 193.372 435.212 194.259 437C195.145 438.788 195.588 440.909 195.588 443.364ZM192.861 443.364C192.861 441.348 192.524 439.648 191.85 438.261C191.183 436.875 190.278 435.826 189.134 435.114C187.997 434.402 186.725 434.045 185.316 434.045C183.906 434.045 182.63 434.402 181.486 435.114C180.35 435.826 179.444 436.875 178.77 438.261C178.103 439.648 177.77 441.348 177.77 443.364C177.77 445.379 178.103 447.08 178.77 448.466C179.444 449.852 180.35 450.902 181.486 451.614C182.63 452.326 183.906 452.682 185.316 452.682C186.725 452.682 187.997 452.326 189.134 451.614C190.278 450.902 191.183 449.852 191.85 448.466C192.524 447.08 192.861 445.379 192.861 443.364ZM205.125 434.227V431.727H222.58V434.227H215.262V455H212.444V434.227H205.125ZM236.788 431.727V455H233.969V431.727H236.788ZM249.478 455V431.727H263.433V434.227H252.296V442.091H262.387V444.591H252.296V455H249.478ZM278.118 431.727V455H275.299V431.727H278.118ZM309.535 439H306.717C306.551 438.189 306.259 437.477 305.842 436.864C305.433 436.25 304.933 435.735 304.342 435.318C303.759 434.894 303.111 434.576 302.399 434.364C301.687 434.152 300.945 434.045 300.172 434.045C298.763 434.045 297.486 434.402 296.342 435.114C295.206 435.826 294.301 436.875 293.626 438.261C292.96 439.648 292.626 441.348 292.626 443.364C292.626 445.379 292.96 447.08 293.626 448.466C294.301 449.852 295.206 450.902 296.342 451.614C297.486 452.326 298.763 452.682 300.172 452.682C300.945 452.682 301.687 452.576 302.399 452.364C303.111 452.152 303.759 451.837 304.342 451.42C304.933 450.996 305.433 450.477 305.842 449.864C306.259 449.242 306.551 448.53 306.717 447.727H309.535C309.323 448.917 308.937 449.981 308.376 450.92C307.816 451.86 307.119 452.659 306.285 453.318C305.452 453.97 304.517 454.466 303.479 454.807C302.448 455.148 301.346 455.318 300.172 455.318C298.187 455.318 296.422 454.833 294.876 453.864C293.331 452.894 292.115 451.515 291.229 449.727C290.342 447.939 289.899 445.818 289.899 443.364C289.899 440.909 290.342 438.788 291.229 437C292.115 435.212 293.331 433.833 294.876 432.864C296.422 431.894 298.187 431.409 300.172 431.409C301.346 431.409 302.448 431.58 303.479 431.92C304.517 432.261 305.452 432.761 306.285 433.42C307.119 434.072 307.816 434.867 308.376 435.807C308.937 436.739 309.323 437.803 309.535 439ZM322.084 455H319.129L327.675 431.727H330.584L339.129 455H336.175L329.22 435.409H329.039L322.084 455ZM323.175 445.909H335.084V448.409H323.175V445.909ZM345.803 434.227V431.727H363.258V434.227H355.939V455H353.121V434.227H345.803ZM393.315 443.364C393.315 445.818 392.871 447.939 391.985 449.727C391.099 451.515 389.883 452.894 388.337 453.864C386.792 454.833 385.027 455.318 383.042 455.318C381.057 455.318 379.292 454.833 377.746 453.864C376.201 452.894 374.985 451.515 374.099 449.727C373.212 447.939 372.769 445.818 372.769 443.364C372.769 440.909 373.212 438.788 374.099 437C374.985 435.212 376.201 433.833 377.746 432.864C379.292 431.894 381.057 431.409 383.042 431.409C385.027 431.409 386.792 431.894 388.337 432.864C389.883 433.833 391.099 435.212 391.985 437C392.871 438.788 393.315 440.909 393.315 443.364ZM390.587 443.364C390.587 441.348 390.25 439.648 389.576 438.261C388.909 436.875 388.004 435.826 386.86 435.114C385.724 434.402 384.451 434.045 383.042 434.045C381.633 434.045 380.356 434.402 379.212 435.114C378.076 435.826 377.171 436.875 376.496 438.261C375.83 439.648 375.496 441.348 375.496 443.364C375.496 445.379 375.83 447.08 376.496 448.466C377.171 449.852 378.076 450.902 379.212 451.614C380.356 452.326 381.633 452.682 383.042 452.682C384.451 452.682 385.724 452.326 386.86 451.614C388.004 450.902 388.909 449.852 389.576 448.466C390.25 447.08 390.587 445.379 390.587 443.364ZM405.093 455V431.727H412.957C414.775 431.727 416.267 432.038 417.434 432.659C418.601 433.273 419.464 434.117 420.025 435.193C420.586 436.269 420.866 437.492 420.866 438.864C420.866 440.235 420.586 441.451 420.025 442.511C419.464 443.572 418.605 444.405 417.445 445.011C416.286 445.61 414.805 445.909 413.002 445.909H406.639V443.364H412.911C414.154 443.364 415.154 443.182 415.911 442.818C416.677 442.455 417.23 441.939 417.57 441.273C417.919 440.598 418.093 439.795 418.093 438.864C418.093 437.932 417.919 437.117 417.57 436.42C417.222 435.723 416.665 435.186 415.9 434.807C415.135 434.42 414.123 434.227 412.866 434.227H407.911V455H405.093ZM416.048 444.545L421.775 455H418.502L412.866 444.545H416.048Z" fill="#3F4445"/>
<path d="M468.129 76.4542C574.436 177.906 577.859 347.662 476.724 458.626C476.715 458.636 476.706 458.646 476.698 458.656L280.81 664.025L80.7427 472.987C-22.5273 369.553 -22.891 199.683 81.3235 90.4812C187.075 -20.3312 360.256 -26.4926 468.129 76.4542Z" stroke="#3F4445" stroke-width="7"/>
</g>
<defs>
<clipPath id="clip0_1090_2">
<rect width="553" height="669" fill="white"/>
</clipPath>
</defs>
</svg>
