<svg width="366" height="279" viewBox="0 0 366 279" fill="none" xmlns="http://www.w3.org/2000/svg">
<path d="M32.5 36.5H101.5" stroke="#3F4445" stroke-width="10"/>
<path d="M15.5 83H101.5" stroke="#3F4445" stroke-width="10"/>
<path d="M0 129.5H101.5" stroke="#3F4445" stroke-width="10"/>
<path d="M61.5 177H94.5" stroke="#3F4445" stroke-width="10"/>
<path d="M242.5 53L216.076 168.169C216.025 168.389 216 168.614 216 168.84V177.5H261H164" stroke="#3F4445" stroke-width="10"/>
<path d="M64 5H247.876C249.758 5 251.175 6.71169 250.824 8.55998L242.676 51.44C242.325 53.2883 243.742 55 245.624 55H299.573C306.773 55 313.888 56.555 320.431 59.5585L328.118 63.087C336.54 66.9528 343.722 73.0831 348.862 80.7935L354.835 89.7528C354.945 89.9172 355.038 90.092 355.113 90.2747L356.321 93.2081C360.026 102.207 361.025 112.091 359.195 121.649L348.966 175.064C348.696 176.478 347.459 177.5 346.02 177.5H337.5H331" stroke="#3F4445" stroke-width="10"/>
<circle cx="129.5" cy="177" r="30" stroke="#7BC165" stroke-width="10"/>
<circle cx="296.5" cy="177" r="30" stroke="#7BC165" stroke-width="10"/>
<path d="M67.2727 247.727V271H64.5455L51.8636 252.727H51.6364V271H48.8182V247.727H51.5455L64.2727 266.045H64.5V247.727H67.2727ZM99.5883 259.364C99.5883 261.818 99.1451 263.939 98.2588 265.727C97.3724 267.515 96.1565 268.894 94.611 269.864C93.0656 270.833 91.3004 271.318 89.3156 271.318C87.3307 271.318 85.5656 270.833 84.0201 269.864C82.4747 268.894 81.2588 267.515 80.3724 265.727C79.486 263.939 79.0428 261.818 79.0428 259.364C79.0428 256.909 79.486 254.788 80.3724 253C81.2588 251.212 82.4747 249.833 84.0201 248.864C85.5656 247.894 87.3307 247.409 89.3156 247.409C91.3004 247.409 93.0656 247.894 94.611 248.864C96.1565 249.833 97.3724 251.212 98.2588 253C99.1451 254.788 99.5883 256.909 99.5883 259.364ZM96.861 259.364C96.861 257.348 96.5239 255.648 95.8497 254.261C95.183 252.875 94.2777 251.826 93.1338 251.114C91.9974 250.402 90.7247 250.045 89.3156 250.045C87.9065 250.045 86.63 250.402 85.486 251.114C84.3497 251.826 83.4444 252.875 82.7701 254.261C82.1034 255.648 81.7701 257.348 81.7701 259.364C81.7701 261.379 82.1034 263.08 82.7701 264.466C83.4444 265.852 84.3497 266.902 85.486 267.614C86.63 268.326 87.9065 268.682 89.3156 268.682C90.7247 268.682 91.9974 268.326 93.1338 267.614C94.2777 266.902 95.183 265.852 95.8497 264.466C96.5239 263.08 96.861 261.379 96.861 259.364ZM109.125 250.227V247.727H126.58V250.227H119.262V271H116.444V250.227H109.125ZM140.788 247.727V271H137.969V247.727H140.788ZM153.478 271V247.727H167.433V250.227H156.296V258.091H166.387V260.591H156.296V271H153.478ZM182.118 247.727V271H179.299V247.727H182.118ZM213.535 255H210.717C210.551 254.189 210.259 253.477 209.842 252.864C209.433 252.25 208.933 251.735 208.342 251.318C207.759 250.894 207.111 250.576 206.399 250.364C205.687 250.152 204.945 250.045 204.172 250.045C202.763 250.045 201.486 250.402 200.342 251.114C199.206 251.826 198.301 252.875 197.626 254.261C196.96 255.648 196.626 257.348 196.626 259.364C196.626 261.379 196.96 263.08 197.626 264.466C198.301 265.852 199.206 266.902 200.342 267.614C201.486 268.326 202.763 268.682 204.172 268.682C204.945 268.682 205.687 268.576 206.399 268.364C207.111 268.152 207.759 267.837 208.342 267.42C208.933 266.996 209.433 266.477 209.842 265.864C210.259 265.242 210.551 264.53 210.717 263.727H213.535C213.323 264.917 212.937 265.981 212.376 266.92C211.816 267.86 211.119 268.659 210.285 269.318C209.452 269.97 208.517 270.466 207.479 270.807C206.448 271.148 205.346 271.318 204.172 271.318C202.187 271.318 200.422 270.833 198.876 269.864C197.331 268.894 196.115 267.515 195.229 265.727C194.342 263.939 193.899 261.818 193.899 259.364C193.899 256.909 194.342 254.788 195.229 253C196.115 251.212 197.331 249.833 198.876 248.864C200.422 247.894 202.187 247.409 204.172 247.409C205.346 247.409 206.448 247.58 207.479 247.92C208.517 248.261 209.452 248.761 210.285 249.42C211.119 250.072 211.816 250.867 212.376 251.807C212.937 252.739 213.323 253.803 213.535 255ZM226.084 271H223.129L231.675 247.727H234.584L243.129 271H240.175L233.22 251.409H233.039L226.084 271ZM227.175 261.909H239.084V264.409H227.175V261.909ZM249.803 250.227V247.727H267.258V250.227H259.939V271H257.121V250.227H249.803ZM297.315 259.364C297.315 261.818 296.871 263.939 295.985 265.727C295.099 267.515 293.883 268.894 292.337 269.864C290.792 270.833 289.027 271.318 287.042 271.318C285.057 271.318 283.292 270.833 281.746 269.864C280.201 268.894 278.985 267.515 278.099 265.727C277.212 263.939 276.769 261.818 276.769 259.364C276.769 256.909 277.212 254.788 278.099 253C278.985 251.212 280.201 249.833 281.746 248.864C283.292 247.894 285.057 247.409 287.042 247.409C289.027 247.409 290.792 247.894 292.337 248.864C293.883 249.833 295.099 251.212 295.985 253C296.871 254.788 297.315 256.909 297.315 259.364ZM294.587 259.364C294.587 257.348 294.25 255.648 293.576 254.261C292.909 252.875 292.004 251.826 290.86 251.114C289.724 250.402 288.451 250.045 287.042 250.045C285.633 250.045 284.356 250.402 283.212 251.114C282.076 251.826 281.171 252.875 280.496 254.261C279.83 255.648 279.496 257.348 279.496 259.364C279.496 261.379 279.83 263.08 280.496 264.466C281.171 265.852 282.076 266.902 283.212 267.614C284.356 268.326 285.633 268.682 287.042 268.682C288.451 268.682 289.724 268.326 290.86 267.614C292.004 266.902 292.909 265.852 293.576 264.466C294.25 263.08 294.587 261.379 294.587 259.364ZM309.093 271V247.727H316.957C318.775 247.727 320.267 248.038 321.434 248.659C322.601 249.273 323.464 250.117 324.025 251.193C324.586 252.269 324.866 253.492 324.866 254.864C324.866 256.235 324.586 257.451 324.025 258.511C323.464 259.572 322.605 260.405 321.445 261.011C320.286 261.61 318.805 261.909 317.002 261.909H310.639V259.364H316.911C318.154 259.364 319.154 259.182 319.911 258.818C320.677 258.455 321.23 257.939 321.57 257.273C321.919 256.598 322.093 255.795 322.093 254.864C322.093 253.932 321.919 253.117 321.57 252.42C321.222 251.723 320.665 251.186 319.9 250.807C319.135 250.42 318.123 250.227 316.866 250.227H311.911V271H309.093ZM320.048 260.545L325.775 271H322.502L316.866 260.545H320.048Z" fill="#3F4445"/>
</svg>
